<?xml version="1.0" encoding="UTF-8" standalone="no"?>
<svg
   xmlns:dc="http://purl.org/dc/elements/1.1/"
   xmlns:cc="http://creativecommons.org/ns#"
   xmlns:rdf="http://www.w3.org/1999/02/22-rdf-syntax-ns#"
   xmlns:svg="http://www.w3.org/2000/svg"
   xmlns="http://www.w3.org/2000/svg"
   xmlns:sodipodi="http://sodipodi.sourceforge.net/DTD/sodipodi-0.dtd"
   xmlns:inkscape="http://www.inkscape.org/namespaces/inkscape"
   inkscape:export-ydpi="78.945183"
   inkscape:export-xdpi="78.945183"
   inkscape:export-filename="/Users/alex_zaugg/Desktop/LogoNew-Frame.png"
   sodipodi:docname="LogoNew-Frame.svg"
   inkscape:version="0.92.2 5c3e80d, 2017-08-06"
   id="svg8"
   version="1.1"
   viewBox="0 0 881.94443 317.49999"
   height="900pt"
   width="2500pt">
  <defs
     id="defs2" />
  <sodipodi:namedview
     inkscape:window-maximized="1"
     inkscape:window-y="1"
     inkscape:window-x="0"
     inkscape:window-height="855"
     inkscape:window-width="1440"
     units="pt"
     inkscape:pagecheckerboard="true"
     showgrid="false"
     inkscape:document-rotation="0"
     inkscape:current-layer="g186"
     inkscape:document-units="mm"
     inkscape:cy="394.53641"
     inkscape:cx="1392.0725"
     inkscape:zoom="0.3"
     inkscape:pageshadow="2"
     inkscape:pageopacity="0.0"
     borderopacity="1.0"
     bordercolor="#666666"
     pagecolor="#ffffff"
     id="base">
    <sodipodi:guide
       id="guide833"
       orientation="0,3333.3333"
       position="0,317.5" />
    <sodipodi:guide
       inkscape:color="rgb(0,0,255)"
       inkscape:locked="false"
       inkscape:label=""
       id="guide835"
       orientation="-1,0"
       position="440.99999,317.5" />
    <sodipodi:guide
       inkscape:color="rgb(0,0,255)"
       inkscape:locked="false"
       inkscape:label=""
       id="guide837"
       orientation="0,1"
       position="917.50583,159" />
    <sodipodi:guide
       id="guide839"
       orientation="-1200,0"
       position="0.62035553,282.76009" />
  </sodipodi:namedview>
  <metadata
     id="metadata5">
    <rdf:RDF>
      <cc:Work
         rdf:about="">
        <dc:format>image/svg+xml</dc:format>
        <dc:type
           rdf:resource="http://purl.org/dc/dcmitype/StillImage" />
        <dc:title></dc:title>
      </cc:Work>
    </rdf:RDF>
  </metadata>
  <g
     id="layer1"
     inkscape:groupmode="layer"
     inkscape:label="Layer 1">
    <rect
       ry="93.627411"
       y="62.391415"
       x="9.9481544"
       height="187.38847"
       width="862.8396"
       id="rect843"
       style="opacity:1;fill:none;fill-rule:evenodd;stroke:#ffffff;stroke-width:6.62311;stroke-miterlimit:4;stroke-dasharray:none;stroke-dashoffset:0;stroke-opacity:1" />
    <rect
       style="opacity:1;fill:#ffffff;fill-opacity:1;fill-rule:evenodd;stroke:#ffffff;stroke-width:0.69048798;stroke-opacity:0"
       id="rect845"
       width="841.34448"
       height="167.12257"
       x="20.370243"
       y="72.50618"
       ry="83.501694" />
    <g
       id="g186"
       transform="matrix(0.26458333,0,0,0.26458333,287.89356,368.17432)">
      <g
         id="g153"
         transform="matrix(2.5347612,0,0,2.5347612,-956.36966,-1202.7717)">
        <polygon
           id="polygon111"
           points="1114.05,121.11 1126.56,121.11 1126.56,94.48 1135.71,94.48 1135.71,121.11 1150.24,121.11 1150.24,129.05 1135.71,129.05 1135.71,192.55 1126.56,192.55 1126.56,129.05 1114.05,129.05 " />
        <path
           id="path113"
           d="m 1036.58,121.11 h 9.15 v 12.8 c 3.7,-4.89 7.78,-8.54 12.24,-10.94 4.48,-2.4 9.35,-3.61 14.62,-3.61 5.36,0 10.11,1.35 14.26,4.06 4.15,2.71 7.22,6.37 9.19,10.97 1.97,4.57 2.96,11.73 2.96,21.43 v 36.73 h -9.15 v -34.04 c 0,-8.21 -0.36,-13.7 -1.05,-16.46 -1.12,-4.71 -3.18,-8.25 -6.21,-10.65 -3.03,-2.38 -6.97,-3.57 -11.84,-3.57 -5.58,0 -10.58,1.84 -14.98,5.52 -4.42,3.65 -7.33,8.2 -8.72,13.63 -0.88,3.54 -1.32,10 -1.32,19.39 v 26.17 h -9.15 z"
           inkscape:connector-curvature="0" />
        <path
           id="path115"
           d="m 1009.48,168.87 7.76,4.08 c -2.55,4.95 -5.49,8.97 -8.83,12.02 -3.34,3.03 -7.08,5.36 -11.25,6.95 -4.19,1.59 -8.9,2.38 -14.17,2.38 -11.7,0 -20.83,-3.81 -27.42,-11.44 -6.59,-7.62 -9.89,-16.23 -9.89,-25.83 0,-9.04 2.8,-17.11 8.39,-24.17 7.06,-8.99 16.55,-13.5 28.41,-13.5 12.22,0 22,4.62 29.28,13.84 5.18,6.5 7.83,14.62 7.91,24.37 H 955.1 c 0.18,8.27 2.85,15.04 7.98,20.31 5.16,5.29 11.52,7.94 19.08,7.94 3.65,0 7.22,-0.63 10.67,-1.89 3.45,-1.25 6.39,-2.91 8.81,-5 2.41,-2.08 5.03,-5.42 7.84,-10.06 z m 0.09,-19.24 c -1.23,-4.91 -3.03,-8.81 -5.38,-11.75 -2.38,-2.94 -5.49,-5.29 -9.37,-7.08 -3.88,-1.79 -7.96,-2.69 -12.22,-2.69 -7.06,0 -13.12,2.24 -18.18,6.75 -3.72,3.3 -6.5,8.21 -8.41,14.78 h 53.56 z"
           inkscape:connector-curvature="0" />
        <path
           id="path117"
           d="m 920.4,121.11 h 9.15 v 56.86 c 0,10 -0.87,17.33 -2.62,21.97 -2.4,6.55 -6.57,11.59 -12.53,15.13 -5.94,3.54 -13.09,5.31 -21.43,5.31 -6.12,0 -11.62,-0.87 -16.5,-2.6 -4.87,-1.75 -8.83,-4.08 -11.91,-7.02 -3.05,-2.91 -5.87,-7.22 -8.45,-12.85 h 9.95 c 2.71,4.75 6.21,8.27 10.52,10.56 4.28,2.29 9.62,3.43 15.96,3.43 6.28,0 11.57,-1.17 15.87,-3.48 4.33,-2.33 7.4,-5.25 9.24,-8.75 1.84,-3.52 2.76,-9.19 2.76,-17.06 v -3.68 c -3.45,4.37 -7.69,7.74 -12.69,10.07 -4.98,2.35 -10.29,3.52 -15.9,3.52 -6.57,0 -12.73,-1.64 -18.52,-4.89 -5.78,-3.25 -10.25,-7.65 -13.41,-13.14 -3.16,-5.52 -4.73,-11.57 -4.73,-18.16 0,-6.61 1.64,-12.76 4.93,-18.48 3.27,-5.69 7.83,-10.22 13.63,-13.54 5.81,-3.32 11.93,-4.98 18.36,-4.98 5.34,0 10.34,1.1 14.96,3.27 4.62,2.17 9.08,5.81 13.36,10.9 z m -27.16,7.13 c -5.2,0 -10.05,1.25 -14.51,3.77 -4.46,2.51 -7.96,5.99 -10.49,10.43 -2.53,4.44 -3.81,9.24 -3.81,14.42 0,7.83 2.62,14.28 7.87,19.42 5.25,5.11 12.06,7.67 20.41,7.67 8.45,0 15.25,-2.53 20.38,-7.6 5.13,-5.09 7.71,-11.75 7.71,-20.02 0,-5.38 -1.19,-10.18 -3.54,-14.39 -2.35,-4.21 -5.72,-7.55 -10.05,-10 -4.32,-2.46 -8.99,-3.7 -13.97,-3.7 z"
           inkscape:connector-curvature="0" />
        <polygon
           id="polygon119"
           points="839.52,192.55 830.37,192.55 830.37,121.11 839.52,121.11 " />
        <path
           id="path121"
           d="m 834.93,91.79 c 2.08,0 3.86,0.74 5.33,2.24 1.48,1.48 2.22,3.3 2.22,5.38 0,2.06 -0.74,3.86 -2.22,5.34 -1.48,1.5 -3.25,2.24 -5.33,2.24 -2.06,0 -3.81,-0.74 -5.29,-2.24 -1.48,-1.48 -2.22,-3.28 -2.22,-5.34 0,-2.08 0.74,-3.9 2.22,-5.38 1.47,-1.5 3.22,-2.24 5.29,-2.24 z"
           class="st1"
           inkscape:connector-curvature="0"
           style="fill:#00b0dc" />
        <polygon
           id="polygon123"
           points="812.59,192.55 803.45,192.55 803.45,93.54 812.59,93.54 " />
        <polygon
           id="polygon125"
           points="785.66,192.55 776.52,192.55 776.52,93.54 785.66,93.54 " />
        <path
           id="path127"
           d="m 750.75,168.87 7.76,4.08 c -2.55,4.95 -5.49,8.97 -8.83,12.02 -3.34,3.03 -7.08,5.36 -11.25,6.95 -4.19,1.59 -8.9,2.38 -14.17,2.38 -11.7,0 -20.83,-3.81 -27.42,-11.44 -6.59,-7.62 -9.89,-16.23 -9.89,-25.83 0,-9.04 2.8,-17.11 8.39,-24.17 7.06,-8.99 16.55,-13.5 28.41,-13.5 12.22,0 21.99,4.62 29.28,13.84 5.18,6.5 7.83,14.62 7.91,24.37 h -64.57 c 0.18,8.27 2.85,15.04 7.98,20.31 5.16,5.29 11.52,7.94 19.08,7.94 3.65,0 7.22,-0.63 10.67,-1.89 3.45,-1.25 6.39,-2.91 8.81,-5 2.42,-2.08 5.04,-5.42 7.84,-10.06 z m 0.09,-19.24 c -1.23,-4.91 -3.03,-8.81 -5.38,-11.75 -2.38,-2.94 -5.49,-5.29 -9.37,-7.08 -3.88,-1.79 -7.96,-2.69 -12.22,-2.69 -7.06,0 -13.12,2.24 -18.18,6.75 -3.72,3.3 -6.5,8.21 -8.41,14.78 h 53.56 z"
           inkscape:connector-curvature="0" />
        <path
           id="path129"
           d="m 669.59,93.54 v 99.01 h -9.15 v -12.29 c -3.86,4.69 -8.16,8.21 -12.96,10.54 -4.78,2.33 -10.02,3.5 -15.7,3.5 -10.09,0 -18.72,-3.65 -25.88,-10.97 -7.15,-7.33 -10.72,-16.21 -10.72,-26.7 0,-10.25 3.61,-19.04 10.83,-26.32 7.2,-7.29 15.87,-10.94 26.03,-10.94 5.85,0 11.14,1.26 15.9,3.75 4.73,2.49 8.9,6.23 12.49,11.23 V 93.54 Z m -36.82,34.7 c -5.11,0 -9.84,1.25 -14.15,3.77 -4.33,2.49 -7.76,6.01 -10.32,10.54 -2.55,4.53 -3.83,9.33 -3.83,14.39 0,5 1.28,9.8 3.86,14.37 2.58,4.57 6.03,8.14 10.38,10.67 4.35,2.55 9.01,3.83 13.99,3.83 5,0 9.78,-1.26 14.26,-3.79 4.51,-2.53 7.96,-5.94 10.38,-10.27 2.42,-4.3 3.63,-9.17 3.63,-14.57 0,-8.23 -2.71,-15.11 -8.16,-20.65 -5.42,-5.53 -12.1,-8.29 -20.04,-8.29 z"
           inkscape:connector-curvature="0" />
        <path
           id="path131"
           d="m 516.25,121.11 h 9.15 v 12.8 c 3.7,-4.89 7.78,-8.54 12.24,-10.94 4.48,-2.4 9.35,-3.61 14.62,-3.61 5.36,0 10.11,1.35 14.26,4.06 4.15,2.71 7.22,6.37 9.19,10.97 1.97,4.57 2.96,11.73 2.96,21.43 v 36.73 h -9.15 v -34.04 c 0,-8.21 -0.36,-13.7 -1.05,-16.46 -1.12,-4.71 -3.18,-8.25 -6.21,-10.65 -3.03,-2.38 -6.97,-3.57 -11.84,-3.57 -5.58,0 -10.58,1.84 -14.98,5.52 -4.42,3.65 -7.33,8.2 -8.72,13.63 -0.88,3.54 -1.32,10 -1.32,19.39 v 26.17 h -9.15 z"
           inkscape:connector-curvature="0" />
        <path
           id="path133"
           d="m 462.03,119.37 c 11.01,0 20.16,3.97 27.4,11.93 6.59,7.24 9.89,15.83 9.89,25.74 0,9.95 -3.48,18.65 -10.45,26.1 -6.95,7.44 -15.92,11.17 -26.84,11.17 -10.99,0 -19.98,-3.72 -26.93,-11.17 -6.97,-7.44 -10.45,-16.14 -10.45,-26.1 0,-9.87 3.3,-18.43 9.89,-25.67 7.25,-8.01 16.42,-12 27.49,-12 z m -0.04,9.01 c -7.65,0 -14.19,2.8 -19.69,8.43 -5.49,5.63 -8.23,12.44 -8.23,20.43 0,5.13 1.26,9.93 3.74,14.39 2.51,4.44 5.9,7.87 10.16,10.29 4.24,2.42 8.92,3.63 14.01,3.63 5.09,0 9.78,-1.21 14.01,-3.63 4.26,-2.42 7.65,-5.85 10.16,-10.29 2.49,-4.46 3.74,-9.26 3.74,-14.39 0,-7.98 -2.76,-14.8 -8.27,-20.43 -5.48,-5.63 -12.03,-8.43 -19.63,-8.43 z"
           inkscape:connector-curvature="0" />
        <path
           id="path135"
           d="m 336.52,121.11 h 9.15 v 13.14 c 3.63,-5 7.8,-8.72 12.53,-11.19 4.73,-2.47 10,-3.7 15.83,-3.7 10.16,0 18.83,3.65 26.05,10.94 7.22,7.29 10.83,16.08 10.83,26.32 0,10.49 -3.59,19.37 -10.74,26.7 -7.15,7.31 -15.79,10.97 -25.9,10.97 -5.67,0 -10.9,-1.19 -15.67,-3.54 -4.78,-2.38 -9.08,-5.9 -12.94,-10.58 v 38.47 h -9.15 v -97.53 z m 36.84,7.13 c -7.96,0 -14.64,2.76 -20.07,8.3 -5.45,5.54 -8.16,12.42 -8.16,20.65 0,5.4 1.21,10.27 3.63,14.57 2.42,4.33 5.9,7.73 10.4,10.27 4.53,2.53 9.31,3.79 14.31,3.79 4.93,0 9.57,-1.28 13.92,-3.83 4.35,-2.53 7.8,-6.1 10.38,-10.67 2.58,-4.57 3.86,-9.37 3.86,-14.37 0,-5.07 -1.28,-9.86 -3.83,-14.39 -2.56,-4.53 -5.99,-8.05 -10.31,-10.54 -4.31,-2.52 -9.05,-3.78 -14.13,-3.78 z"
           inkscape:connector-curvature="0" />
        <path
           id="path137"
           d="m 320.22,128.87 -5.92,6.1 c -4.91,-4.75 -9.73,-7.13 -14.42,-7.13 -2.98,0 -5.54,0.99 -7.67,2.96 -2.13,1.95 -3.21,4.26 -3.21,6.88 0,2.31 0.87,4.53 2.62,6.61 1.75,2.15 5.45,4.66 11.05,7.56 6.81,3.52 11.46,6.95 13.92,10.22 2.4,3.32 3.61,7.06 3.61,11.21 0,5.87 -2.06,10.83 -6.19,14.91 -4.13,4.06 -9.28,6.1 -15.47,6.1 -4.12,0 -8.05,-0.9 -11.82,-2.69 -3.74,-1.79 -6.84,-4.26 -9.3,-7.42 l 5.79,-6.57 c 4.69,5.29 9.69,7.94 14.95,7.94 3.68,0 6.82,-1.19 9.42,-3.54 2.58,-2.36 3.88,-5.14 3.88,-8.32 0,-2.62 -0.85,-4.96 -2.56,-7.02 -1.73,-2.02 -5.58,-4.55 -11.59,-7.6 -6.46,-3.32 -10.85,-6.59 -13.16,-9.82 -2.33,-3.23 -3.5,-6.91 -3.5,-11.05 0,-5.4 1.86,-9.89 5.56,-13.48 3.72,-3.57 8.41,-5.36 14.08,-5.36 6.61,0.01 13.25,3.17 19.93,9.51 z"
           inkscape:connector-curvature="0" />
        <path
           id="path139"
           d="M 228.75,95.21 H 185.31 117.53 74.1 c -13.44,0 -24.34,10.9 -24.34,24.34 v 74.77 c 0,13.44 10.9,24.34 24.34,24.34 h 18.54 v 0 25.91 l 24.9,-24.9 1.01,-1.01 v 0 h 66.77 43.44 c 13.44,0 24.34,-10.9 24.34,-24.34 V 119.55 C 253.09,106.1 242.19,95.21 228.75,95.21 Z"
           class="st1"
           inkscape:connector-curvature="0"
           style="fill:#00b0dc" />
        <path
           id="path141"
           d="m 107.53,136.68 c -2.09,-1.05 -3.81,-1.57 -5.16,-1.57 -2.74,0 -5.07,1.7 -6.95,5.11 -1.91,3.41 -2.85,10.09 -2.85,20.04 l 0.07,3.47 v 55.78 H 74.75 v -98.4 h 15.47 v 9.08 c 1.66,-3.54 3.86,-6.23 6.59,-8.07 2.76,-1.84 5.76,-2.76 9.01,-2.76 2.31,0 4.73,0.6 7.26,1.84 z"
           class="st2"
           inkscape:connector-curvature="0"
           style="clip-rule:evenodd;fill:#ffffff;fill-rule:evenodd" />
        <path
           id="path143"
           d="m 175.62,147.89 h -38.88 c 2.02,-4.33 4.22,-7.35 6.57,-9.06 3.79,-2.76 8.16,-4.13 13.16,-4.13 4.62,0 8.66,1.21 12.15,3.65 3.48,2.45 5.81,5.63 7,9.54 z m 17.89,10.6 c 0,-11.77 -3.52,-21.21 -10.56,-28.39 -7.04,-7.15 -16.19,-10.74 -27.42,-10.74 -10.6,0 -19.39,3.59 -26.41,10.79 -7.02,7.17 -10.54,16.21 -10.54,27.08 0,10.6 3.52,19.44 10.54,26.48 7.02,7.06 16.12,10.58 27.29,10.58 7.2,0 13.41,-1.28 18.65,-3.83 5.23,-2.58 9.73,-6.53 13.48,-11.86 l -15.02,-7.11 c -4.8,4.71 -10.52,7.06 -17.2,7.06 -5.56,0 -10.16,-1.5 -13.74,-4.51 -3.59,-3.03 -5.81,-7.08 -6.64,-12.17 h 57.51 z"
           class="st2"
           inkscape:connector-curvature="0"
           style="clip-rule:evenodd;fill:#ffffff;fill-rule:evenodd" />
        <path
           id="path145"
           d="m 225.1,191.27 c -2.02,2.02 -4.44,3.03 -7.29,3.03 -2.85,0 -5.27,-1.01 -7.29,-3.03 -2,-2.02 -3.01,-4.44 -3.01,-7.31 0,-2.85 1.01,-5.27 3.01,-7.27 2.02,-1.99 4.44,-2.98 7.29,-2.98 2.85,0 5.27,0.99 7.29,2.98 2,2 3.01,4.42 3.01,7.27 0,2.87 -1.01,5.29 -3.01,7.31 z"
           class="st2"
           inkscape:connector-curvature="0"
           style="clip-rule:evenodd;fill:#ffffff;fill-rule:evenodd" />
        <path
           id="path147"
           d="m 225.1,136.92 c -2.02,2.02 -4.44,3.03 -7.29,3.03 -2.85,0 -5.27,-0.99 -7.29,-2.98 -2,-1.99 -3.01,-4.42 -3.01,-7.29 0,-2.85 1.01,-5.27 3.01,-7.29 2.02,-2.02 4.44,-3.03 7.29,-3.03 2.85,0 5.27,1.01 7.29,3.03 2,2.02 3.01,4.44 3.01,7.29 0,2.82 -1.01,5.22 -3.01,7.24 z"
           class="st2"
           inkscape:connector-curvature="0"
           style="clip-rule:evenodd;fill:#ffffff;fill-rule:evenodd" />
        <path
           id="path149"
           d="M 181.55,95.21 H 117.54 74.1 c -9.56,0 -17.82,5.51 -21.8,13.53 h 129.25 z"
           class="st3"
           inkscape:connector-curvature="0"
           style="fill:#fac405" />
        <path
           id="path151"
           d="m 121.31,205.12 v 13.34 h 110.45 c 8.26,-1.02 15.24,-6.18 18.79,-13.34 z"
           class="st4"
           inkscape:connector-curvature="0"
           style="fill:#03d090" />
      </g>
    </g>
  </g>
  <style
     id="style107"
     type="text/css">
	.st0{fill:#FFFFFF;}
	.st1{fill:#00B0DC;}
	.st2{fill-rule:evenodd;clip-rule:evenodd;fill:#FFFFFF;}
	.st3{fill:#FAC405;}
	.st4{fill:#03D090;}
</style>
</svg>
